<svg version="1.1" id="Layer_1" xmlns="http://www.w3.org/2000/svg" xmlns:xlink="http://www.w3.org/1999/xlink" x="0px" y="0px"
	 width="100%" viewBox="0 0 1024 1024" enable-background="new 0 0 1024 1024" xml:space="preserve">

<path fill="#2A6239" opacity="1.000000" stroke="none" 
	d="
M804.945435,643.984985 
	C798.435120,647.061218 792.103394,650.615784 785.381287,653.124512 
	C764.637573,660.866333 742.957581,664.367859 720.984009,666.025452 
	C649.609985,671.409668 581.133301,658.062073 514.437622,633.612854 
	C480.308228,621.101685 445.517365,611.117615 409.547943,605.548523 
	C352.893005,596.776855 296.920563,598.535217 242.577957,618.391846 
	C227.348663,623.956604 213.050385,632.071533 198.335678,639.039185 
	C196.853241,639.741089 195.444595,640.598938 193.468048,641.674866 
	C193.304825,640.063782 193.080093,638.867859 193.078232,637.671570 
	C193.055969,623.339478 193.167160,609.006104 192.988358,594.676270 
	C192.950348,591.629761 193.941010,589.843811 196.412735,588.217041 
	C217.020355,574.654297 239.357986,564.709351 263.008881,558.166016 
	C280.598694,553.299622 298.673706,550.186768 317.292664,546.008667 
	C318.366913,544.510254 318.953918,543.296509 318.955719,542.081848 
	C319.006561,507.663696 319.013519,473.245453 318.941620,438.827393 
	C318.938904,437.524780 318.079193,436.223938 317.618805,434.922272 
	C310.438110,437.940155 303.245422,439.856110 295.513184,436.594177 
	C280.611603,430.307861 276.852814,412.345459 288.234467,400.937012 
	C359.065765,329.939301 429.914368,258.958862 500.767059,187.982544 
	C509.655365,179.078705 516.328552,178.959518 525.091736,187.714340 
	C596.041260,258.596375 666.970093,329.499176 737.880737,400.420105 
	C746.517212,409.057831 747.197266,420.969116 739.771240,430.206573 
	C732.591919,439.137207 719.986084,440.861969 708.938599,434.285278 
	C707.825378,435.555939 707.053955,436.870270 707.052490,438.185486 
	C706.992554,491.778412 706.988708,545.371399 707.076965,598.964294 
	C707.079163,600.326050 708.189636,601.685974 708.783203,603.046753 
	C731.065979,603.051270 752.882996,599.742859 774.228699,593.470886 
	C782.671448,590.990234 790.936890,587.906555 799.768066,585.247864 
	C800.486450,585.207886 800.719788,585.017517 800.953125,584.827087 
	C801.434265,584.529724 801.915466,584.232422 802.856689,584.340210 
	C803.543335,588.820251 803.719421,592.898926 804.011719,596.969116 
	C804.276184,600.651917 804.667664,604.325500 805.003113,608.003174 
	C805.073242,609.396301 805.143433,610.789429 804.804321,612.878540 
	C804.261902,620.997437 804.032898,628.420532 804.045654,635.843140 
	C804.050293,638.557556 804.628723,641.271057 804.945435,643.984985 
M365.729187,544.559448 
	C392.073975,545.339417 418.187805,548.592224 443.731964,554.768372 
	C479.083771,563.315979 514.184753,572.929810 549.280579,582.499451 
	C585.932373,592.493530 622.910095,600.480591 661.718323,602.798767 
	C662.145386,601.487427 662.945007,600.176392 662.946167,598.864685 
	C663.006714,530.939087 663.009705,463.013458 662.926392,395.087921 
	C662.924744,393.732147 661.831360,392.377655 660.840759,390.467712 
	C611.499390,341.419495 562.158020,292.371246 512.049133,242.560135 
	C511.546356,243.342651 510.997345,244.643311 510.073364,245.570236 
	C484.202118,271.524414 458.278198,297.426086 432.394501,323.367859 
	C409.927643,345.885101 387.499207,368.440643 364.431122,391.546814 
	C364.289246,392.522461 364.023651,393.498047 364.023254,394.473755 
	C364.002258,442.950928 363.995026,491.428101 364.048889,539.905212 
	C364.050415,541.282898 364.728424,542.659729 365.729187,544.559448 
z"/>
<path fill="#83C787" opacity="1.000000" stroke="none" 
	d="
M804.833252,739.948792 
	C806.367798,758.893250 803.172424,776.455811 789.950684,791.114563 
	C778.100769,804.252380 763.421082,811.942688 745.681946,811.958923 
	C581.909668,812.108948 418.137146,812.074951 254.364731,812.026367 
	C221.091644,812.016479 193.241974,784.076843 193.089310,750.848572 
	C193.058716,744.184570 193.088791,737.520325 193.516907,730.365356 
	C201.012482,726.552979 208.079483,723.226013 215.152130,719.911072 
	C240.473251,708.043030 267.541351,702.883301 295.083435,701.295776 
	C318.758057,699.931091 342.620209,700.008789 366.188538,703.976562 
	C388.691589,707.765015 411.327148,711.014709 433.586334,715.939331 
	C459.960358,721.774231 485.947693,729.335571 512.186829,735.807007 
	C543.863220,743.619446 575.710999,750.721313 608.235779,754.003906 
	C628.002014,755.998840 647.817444,757.634949 667.647583,758.810364 
	C676.558716,759.338501 685.570007,758.516907 694.518372,758.002869 
	C709.406555,757.147583 724.301697,756.287903 739.155823,754.992798 
	C761.720886,753.025208 783.656067,748.086121 804.833252,739.948792 
z"/>
<path fill="#58B062" opacity="1.000000" stroke="none" 
	d="
M804.898987,739.487610 
	C783.656067,748.086121 761.720886,753.025208 739.155823,754.992798 
	C724.301697,756.287903 709.406555,757.147583 694.518372,758.002869 
	C685.570007,758.516907 676.558716,759.338501 667.647583,758.810364 
	C647.817444,757.634949 628.002014,755.998840 608.235779,754.003906 
	C575.710999,750.721313 543.863220,743.619446 512.186829,735.807007 
	C485.947693,729.335571 459.960358,721.774231 433.586334,715.939331 
	C411.327148,711.014709 388.691589,707.765015 366.188538,703.976562 
	C342.620209,700.008789 318.758057,699.931091 295.083435,701.295776 
	C267.541351,702.883301 240.473251,708.043030 215.152130,719.911072 
	C208.079483,723.226013 201.012482,726.552979 193.599487,729.898682 
	C193.207016,712.936951 193.010422,695.948425 193.309494,678.968628 
	C193.343979,677.010010 195.751831,674.481812 197.709839,673.261902 
	C220.758392,658.902039 245.523361,648.524536 271.892883,642.022339 
	C328.533508,628.055847 384.630768,632.124695 439.931610,648.614929 
	C470.819366,657.825378 501.061005,669.189514 531.660400,679.383179 
	C569.472900,691.979858 608.033936,701.643311 647.747620,705.539856 
	C691.421021,709.825012 734.902588,709.265808 777.119263,694.991150 
	C786.363037,691.865601 795.326111,687.909790 804.964722,684.121643 
	C804.964722,702.565369 804.964722,720.795898 804.898987,739.487610 
z"/>
<path fill="#165226" opacity="1.000000" stroke="none" 
	d="
M708.788696,602.575073 
	C708.189636,601.685974 707.079163,600.326050 707.076965,598.964294 
	C706.988708,545.371399 706.992554,491.778412 707.052490,438.185486 
	C707.053955,436.870270 707.825378,435.555939 708.626831,434.122498 
	C708.942261,441.478333 708.807739,448.952789 708.804688,456.427338 
	C708.785217,504.986053 708.794373,553.544739 708.788696,602.575073 
z"/>
<path fill="#144E22" opacity="1.000000" stroke="none" 
	d="
M317.531128,435.388580 
	C318.079193,436.223938 318.938904,437.524780 318.941620,438.827393 
	C319.013519,473.245453 319.006561,507.663696 318.955719,542.081848 
	C318.953918,543.296509 318.366913,544.510254 317.701721,545.892822 
	C317.381653,509.325775 317.412567,472.590332 317.531128,435.388580 
z"/>
<path fill="#164D23" opacity="1.000000" stroke="none" 
	d="
M805.059204,643.529419 
	C804.628723,641.271057 804.050293,638.557556 804.045654,635.843140 
	C804.032898,628.420532 804.261902,620.997437 804.698730,613.285828 
	C805.059204,623.022644 805.116150,633.048218 805.059204,643.529419 
z"/>
<path fill="#164D23" opacity="1.000000" stroke="none" 
	d="
M805.081665,607.539917 
	C804.667664,604.325500 804.276184,600.651917 804.011719,596.969116 
	C803.719421,592.898926 803.543335,588.820251 803.151733,584.358887 
	C805.431213,581.913025 805.162231,583.971558 805.165527,585.444214 
	C805.181580,592.655029 805.165222,599.865845 805.081665,607.539917 
z"/>
<path fill="#164D23" opacity="1.000000" stroke="none" 
	d="
M800.703857,584.835449 
	C800.719788,585.017517 800.486450,585.207886 800.139099,585.247925 
	C800.025085,585.097595 800.454590,584.843750 800.703857,584.835449 
z"/>
<path fill="#FEFEFE" opacity="1.000000" stroke="none" 
	d="
M660.917175,602.976074 
	C622.910095,600.480591 585.932373,592.493530 549.280579,582.499451 
	C514.184753,572.929810 479.083771,563.315979 443.731964,554.768372 
	C418.187805,548.592224 392.073975,545.339417 365.466797,543.829712 
	C365.211060,535.119568 365.231750,527.139038 365.222046,519.158569 
	C365.170166,476.432129 365.110626,433.705688 365.053772,390.979248 
	C387.499207,368.440643 409.927643,345.885101 432.394501,323.367859 
	C458.278198,297.426086 484.202118,271.524414 510.073364,245.570236 
	C510.997345,244.643311 511.546356,243.342651 512.049133,242.560135 
	C562.158020,292.371246 611.499390,341.419495 661.008911,391.211121 
	C661.170776,460.139771 661.166565,528.325012 661.147888,596.510254 
	C661.147278,598.665527 660.997437,600.820801 660.917175,602.976074 
M460.165131,413.499969 
	C460.165131,436.564606 460.165131,459.629211 460.165131,482.533630 
	C496.086426,482.533630 531.157654,482.533630 566.377930,482.533630 
	C566.377930,446.612885 566.377930,411.027008 566.377930,375.294952 
	C530.942871,375.294952 495.739502,375.294952 460.631683,375.294952 
	C460.419922,375.910980 460.225891,376.212921 460.225128,376.515381 
	C460.194397,388.510223 460.181213,400.505066 460.165131,413.499969 
z"/>
<path fill="#185528" opacity="1.000000" stroke="none" 
	d="
M661.317749,602.887451 
	C660.997437,600.820801 661.147278,598.665527 661.147888,596.510254 
	C661.166565,528.325012 661.170776,460.139771 661.212280,391.488525 
	C661.831360,392.377655 662.924744,393.732147 662.926392,395.087921 
	C663.009705,463.013458 663.006714,530.939087 662.946167,598.864685 
	C662.945007,600.176392 662.145386,601.487427 661.317749,602.887451 
z"/>
<path fill="#134B21" opacity="1.000000" stroke="none" 
	d="
M364.742432,391.263031 
	C365.110626,433.705688 365.170166,476.432129 365.222046,519.158569 
	C365.231750,527.139038 365.211060,535.119568 365.147705,543.568481 
	C364.728424,542.659729 364.050415,541.282898 364.048889,539.905212 
	C363.995026,491.428101 364.002258,442.950928 364.023254,394.473755 
	C364.023651,393.498047 364.289246,392.522461 364.742432,391.263031 
z"/>
<path fill="#2B623A" opacity="1.000000" stroke="none" 
	d="
M460.165466,412.999939 
	C460.181213,400.505066 460.194397,388.510223 460.225128,376.515381 
	C460.225891,376.212921 460.419922,375.910980 460.631683,375.294952 
	C495.739502,375.294952 530.942871,375.294952 566.377930,375.294952 
	C566.377930,411.027008 566.377930,446.612885 566.377930,482.533630 
	C531.157654,482.533630 496.086426,482.533630 460.165131,482.533630 
	C460.165131,459.629211 460.165131,436.564606 460.165466,412.999939 
z"/>
</svg>